<svg width="60" height="63" viewBox="0 0 60 63" fill="none" xmlns="http://www.w3.org/2000/svg">
<path d="M1.99293 30.8846C3.05481 29.8674 4.33793 29.3791 5.84226 29.4198C7.34659 29.4605 8.6297 29.9911 9.69158 31.0118L24.6907 45.38L24.6217 5.48601C24.6217 4.04495 25.1314 2.83616 26.1508 1.85963C27.1702 0.8831 28.4303 0.396529 29.9311 0.39992C31.4354 0.39992 32.6973 0.888185 33.7167 1.86472C34.7361 2.84125 35.244 4.04834 35.2405 5.48601L35.3095 45.38L50.4414 30.8846C51.5032 29.8674 52.7651 29.3588 54.227 29.3588C55.6888 29.3588 56.9489 29.8674 58.0073 30.8846C59.0692 31.9018 59.6001 33.1106 59.6001 34.511C59.6001 35.9114 59.0692 37.1185 58.0073 38.1323L33.7167 61.4011C33.1858 61.9098 32.6106 62.2709 31.9911 62.4845C31.3717 62.6981 30.708 62.8032 30.0001 62.7998C29.2922 62.7998 28.6285 62.693 28.0091 62.4794C27.3896 62.2658 26.8144 61.9064 26.2835 61.4011L1.8602 38.0051C0.886805 37.0727 0.400097 35.908 0.400097 34.511C0.400097 33.114 0.931048 31.9052 1.99293 30.8846Z" fill="white"/>
</svg>
