<svg width="84" height="92" viewBox="0 0 84 92" fill="none" xmlns="http://www.w3.org/2000/svg">
<path d="M8.125 75L0.208333 47.0833C-2.08616e-07 46.25 0.0874996 45.2778 0.470833 44.1667C0.854166 43.0556 1.66944 42.2917 2.91667 41.875L8.33333 40V20.8333C8.33333 18.5417 9.15 16.5792 10.7833 14.9458C12.4167 13.3125 14.3778 12.4972 16.6667 12.5H29.1667V0H54.1667V12.5H66.6667C68.9583 12.5 70.9208 13.3167 72.5542 14.95C74.1875 16.5833 75.0028 18.5444 75 20.8333V40L80.4167 41.875C81.875 42.4306 82.743 43.2472 83.0208 44.325C83.2986 45.4028 83.3333 46.3222 83.125 47.0833L75.2083 75C71.7361 75 68.5764 74.1833 65.7292 72.55C62.8819 70.9167 60.4167 68.9556 58.3333 66.6667C56.25 68.9583 53.7847 70.9208 50.9375 72.5542C48.0903 74.1875 45 75.0028 41.6667 75C38.3333 75 35.2431 74.1833 32.3958 72.55C29.5486 70.9167 27.0833 68.9556 25 66.6667C22.9167 68.9583 20.4514 70.9208 17.6042 72.5542C14.7569 74.1875 11.5972 75.0028 8.125 75ZM0 91.6667V83.3333H8.33333C11.25 83.3333 14.1319 82.8819 16.9792 81.9792C19.8264 81.0764 22.5 79.7222 25 77.9167C27.5 79.7222 30.1736 81.0417 33.0208 81.875C35.8681 82.7083 38.75 83.125 41.6667 83.125C44.5833 83.125 47.4653 82.7083 50.3125 81.875C53.1597 81.0417 55.8333 79.7222 58.3333 77.9167C60.8333 79.7222 63.5069 81.0764 66.3542 81.9792C69.2014 82.8819 72.0833 83.3333 75 83.3333H83.3333V91.6667H75C72.0833 91.6667 69.2361 91.3194 66.4583 90.625C63.6806 89.9306 60.9722 88.8889 58.3333 87.5C55.6944 88.8889 52.9681 89.9306 50.1542 90.625C47.3403 91.3194 44.5111 91.6667 41.6667 91.6667C38.8194 91.6667 35.9889 91.3194 33.175 90.625C30.3611 89.9306 27.6361 88.8889 25 87.5C22.3611 88.8889 19.6528 89.9306 16.875 90.625C14.0972 91.3194 11.25 91.6667 8.33333 91.6667H0ZM16.6667 37.2917L41.6667 29.1667L66.6667 37.2917V20.8333H16.6667V37.2917ZM41.6667 66.6667C44.9306 66.6667 47.6917 65.5208 49.95 63.2292C52.2083 60.9375 55.0028 57.8472 58.3333 53.9583C61.6667 57.7083 63.9236 60.2778 65.1042 61.6667C66.2847 63.0556 67.7083 64.2361 69.375 65.2083L73.9583 48.5417L41.6667 37.9167L9.16667 48.5417L13.9583 65C15.625 64.0278 17.0486 62.9167 18.2292 61.6667C19.4097 60.4167 21.6667 57.8472 25 53.9583C28.4722 57.9167 31.3028 61.025 33.4917 63.2833C35.6806 65.5417 38.4056 66.6694 41.6667 66.6667Z" fill="white"/>
</svg>
